<mxfile host="app.diagrams.net" agent="Mozilla/5.0 (X11; Linux x86_64; rv:132.0) Gecko/20100101 Firefox/132.0" version="24.8.6">
  <diagram name="Page-1" id="dK4UOKXj8se_VW2nIS-f">
    <mxGraphModel dx="1292" dy="1385" grid="1" gridSize="10" guides="1" tooltips="1" connect="1" arrows="1" fold="1" page="1" pageScale="1" pageWidth="850" pageHeight="1100" math="0" shadow="0">
      <root>
        <mxCell id="0" />
        <mxCell id="1" parent="0" />
        <mxCell id="7Yh6D1ucSm9buxZHoczs-38" style="edgeStyle=orthogonalEdgeStyle;rounded=0;orthogonalLoop=1;jettySize=auto;html=1;exitX=0;exitY=0.75;exitDx=0;exitDy=0;endArrow=classic;endFill=1;startArrow=classic;startFill=1;entryX=1;entryY=0.75;entryDx=0;entryDy=0;" edge="1" parent="1">
          <mxGeometry relative="1" as="geometry">
            <mxPoint x="239.99999999999977" y="279.31" as="targetPoint" />
            <mxPoint x="559.9999999999998" y="279.31" as="sourcePoint" />
          </mxGeometry>
        </mxCell>
        <mxCell id="7Yh6D1ucSm9buxZHoczs-47" value="SPI" style="edgeLabel;html=1;align=center;verticalAlign=middle;resizable=0;points=[];" vertex="1" connectable="0" parent="7Yh6D1ucSm9buxZHoczs-38">
          <mxGeometry x="0.0312" y="-3" relative="1" as="geometry">
            <mxPoint as="offset" />
          </mxGeometry>
        </mxCell>
        <mxCell id="7Yh6D1ucSm9buxZHoczs-52" style="edgeStyle=orthogonalEdgeStyle;rounded=0;orthogonalLoop=1;jettySize=auto;html=1;entryX=0;entryY=0.5;entryDx=0;entryDy=0;startArrow=classic;startFill=1;" edge="1" parent="1" source="7Yh6D1ucSm9buxZHoczs-36" target="7Yh6D1ucSm9buxZHoczs-51">
          <mxGeometry relative="1" as="geometry">
            <Array as="points">
              <mxPoint x="650" y="360" />
            </Array>
          </mxGeometry>
        </mxCell>
        <mxCell id="7Yh6D1ucSm9buxZHoczs-53" value="SPI" style="edgeLabel;html=1;align=center;verticalAlign=middle;resizable=0;points=[];" vertex="1" connectable="0" parent="7Yh6D1ucSm9buxZHoczs-52">
          <mxGeometry x="-0.3657" y="2" relative="1" as="geometry">
            <mxPoint x="-2" y="23" as="offset" />
          </mxGeometry>
        </mxCell>
        <mxCell id="7Yh6D1ucSm9buxZHoczs-55" style="edgeStyle=orthogonalEdgeStyle;rounded=0;orthogonalLoop=1;jettySize=auto;html=1;entryX=0.5;entryY=1;entryDx=0;entryDy=0;" edge="1" parent="1" source="7Yh6D1ucSm9buxZHoczs-36" target="7Yh6D1ucSm9buxZHoczs-54">
          <mxGeometry relative="1" as="geometry" />
        </mxCell>
        <mxCell id="7Yh6D1ucSm9buxZHoczs-56" value="&lt;div&gt;I2C&lt;/div&gt;" style="edgeLabel;html=1;align=center;verticalAlign=middle;resizable=0;points=[];" vertex="1" connectable="0" parent="7Yh6D1ucSm9buxZHoczs-55">
          <mxGeometry x="-0.1368" y="-2" relative="1" as="geometry">
            <mxPoint as="offset" />
          </mxGeometry>
        </mxCell>
        <mxCell id="7Yh6D1ucSm9buxZHoczs-86" style="edgeStyle=orthogonalEdgeStyle;rounded=0;orthogonalLoop=1;jettySize=auto;html=1;entryX=0;entryY=0.5;entryDx=0;entryDy=0;startArrow=classic;startFill=1;" edge="1" parent="1" source="7Yh6D1ucSm9buxZHoczs-36" target="7Yh6D1ucSm9buxZHoczs-85">
          <mxGeometry relative="1" as="geometry">
            <Array as="points">
              <mxPoint x="758" y="240" />
              <mxPoint x="758" y="200" />
            </Array>
          </mxGeometry>
        </mxCell>
        <mxCell id="7Yh6D1ucSm9buxZHoczs-87" value="SPI capable GPI signals" style="edgeLabel;html=1;align=center;verticalAlign=middle;resizable=0;points=[];" vertex="1" connectable="0" parent="7Yh6D1ucSm9buxZHoczs-86">
          <mxGeometry x="0.0048" y="-2" relative="1" as="geometry">
            <mxPoint as="offset" />
          </mxGeometry>
        </mxCell>
        <mxCell id="7Yh6D1ucSm9buxZHoczs-89" style="edgeStyle=orthogonalEdgeStyle;rounded=0;orthogonalLoop=1;jettySize=auto;html=1;exitX=0.25;exitY=1;exitDx=0;exitDy=0;entryX=1;entryY=0.5;entryDx=0;entryDy=0;" edge="1" parent="1" source="7Yh6D1ucSm9buxZHoczs-36" target="7Yh6D1ucSm9buxZHoczs-88">
          <mxGeometry relative="1" as="geometry" />
        </mxCell>
        <mxCell id="7Yh6D1ucSm9buxZHoczs-90" value="Led Control signals" style="edgeLabel;html=1;align=center;verticalAlign=middle;resizable=0;points=[];" vertex="1" connectable="0" parent="7Yh6D1ucSm9buxZHoczs-89">
          <mxGeometry x="-0.1702" y="-1" relative="1" as="geometry">
            <mxPoint x="-29" y="-12" as="offset" />
          </mxGeometry>
        </mxCell>
        <mxCell id="7Yh6D1ucSm9buxZHoczs-92" style="edgeStyle=orthogonalEdgeStyle;rounded=0;orthogonalLoop=1;jettySize=auto;html=1;exitX=1;exitY=0.75;exitDx=0;exitDy=0;startArrow=classic;startFill=1;endArrow=none;endFill=0;" edge="1" parent="1" source="7Yh6D1ucSm9buxZHoczs-36" target="7Yh6D1ucSm9buxZHoczs-91">
          <mxGeometry relative="1" as="geometry" />
        </mxCell>
        <mxCell id="7Yh6D1ucSm9buxZHoczs-94" value="GPIO button signals" style="edgeLabel;html=1;align=center;verticalAlign=middle;resizable=0;points=[];" vertex="1" connectable="0" parent="7Yh6D1ucSm9buxZHoczs-92">
          <mxGeometry x="-0.0327" y="-1" relative="1" as="geometry">
            <mxPoint as="offset" />
          </mxGeometry>
        </mxCell>
        <mxCell id="7Yh6D1ucSm9buxZHoczs-95" style="edgeStyle=orthogonalEdgeStyle;rounded=0;orthogonalLoop=1;jettySize=auto;html=1;startArrow=classic;startFill=1;endArrow=none;endFill=0;" edge="1" parent="1">
          <mxGeometry relative="1" as="geometry">
            <mxPoint x="619" y="420" as="targetPoint" />
            <mxPoint x="619.1734782608695" y="280" as="sourcePoint" />
          </mxGeometry>
        </mxCell>
        <mxCell id="7Yh6D1ucSm9buxZHoczs-97" value="Controller signals" style="edgeLabel;html=1;align=center;verticalAlign=middle;resizable=0;points=[];" vertex="1" connectable="0" parent="7Yh6D1ucSm9buxZHoczs-95">
          <mxGeometry x="0.5496" y="1" relative="1" as="geometry">
            <mxPoint y="12" as="offset" />
          </mxGeometry>
        </mxCell>
        <mxCell id="7Yh6D1ucSm9buxZHoczs-36" value="MCU" style="rounded=0;whiteSpace=wrap;html=1;fillColor=#f8cecc;strokeColor=#b85450;" vertex="1" parent="1">
          <mxGeometry x="560" y="220" width="120" height="60" as="geometry" />
        </mxCell>
        <mxCell id="7Yh6D1ucSm9buxZHoczs-51" value="SD Card" style="rounded=1;whiteSpace=wrap;html=1;fillColor=#dae8fc;strokeColor=#6c8ebf;" vertex="1" parent="1">
          <mxGeometry x="680" y="330" width="120" height="60" as="geometry" />
        </mxCell>
        <mxCell id="7Yh6D1ucSm9buxZHoczs-54" value="&lt;div&gt;Display Driver&lt;br&gt;&lt;/div&gt;" style="rounded=1;whiteSpace=wrap;html=1;fillColor=#dae8fc;strokeColor=#6c8ebf;" vertex="1" parent="1">
          <mxGeometry x="490" y="30" width="120" height="60" as="geometry" />
        </mxCell>
        <mxCell id="7Yh6D1ucSm9buxZHoczs-144" style="edgeStyle=orthogonalEdgeStyle;rounded=0;orthogonalLoop=1;jettySize=auto;html=1;exitX=1;exitY=0.25;exitDx=0;exitDy=0;entryX=0;entryY=0.25;entryDx=0;entryDy=0;startArrow=classic;startFill=1;" edge="1" parent="1">
          <mxGeometry relative="1" as="geometry">
            <mxPoint x="239.99999999999977" y="260" as="sourcePoint" />
            <mxPoint x="559.9999999999998" y="260" as="targetPoint" />
          </mxGeometry>
        </mxCell>
        <mxCell id="7Yh6D1ucSm9buxZHoczs-145" value="GPIO" style="edgeLabel;html=1;align=center;verticalAlign=middle;resizable=0;points=[];" vertex="1" connectable="0" parent="7Yh6D1ucSm9buxZHoczs-144">
          <mxGeometry x="-0.0956" y="-2" relative="1" as="geometry">
            <mxPoint x="15" as="offset" />
          </mxGeometry>
        </mxCell>
        <mxCell id="7Yh6D1ucSm9buxZHoczs-149" style="edgeStyle=orthogonalEdgeStyle;rounded=0;orthogonalLoop=1;jettySize=auto;html=1;exitX=0.75;exitY=0;exitDx=0;exitDy=0;entryX=0.5;entryY=1;entryDx=0;entryDy=0;" edge="1" parent="1" source="7Yh6D1ucSm9buxZHoczs-1" target="7Yh6D1ucSm9buxZHoczs-152">
          <mxGeometry relative="1" as="geometry">
            <mxPoint x="390" y="130" as="targetPoint" />
            <Array as="points">
              <mxPoint x="210" y="190" />
              <mxPoint x="350" y="190" />
            </Array>
          </mxGeometry>
        </mxCell>
        <mxCell id="7Yh6D1ucSm9buxZHoczs-155" value="Octal SPI" style="edgeLabel;html=1;align=center;verticalAlign=middle;resizable=0;points=[];" vertex="1" connectable="0" parent="7Yh6D1ucSm9buxZHoczs-149">
          <mxGeometry x="0.7655" y="-3" relative="1" as="geometry">
            <mxPoint as="offset" />
          </mxGeometry>
        </mxCell>
        <mxCell id="7Yh6D1ucSm9buxZHoczs-163" style="edgeStyle=orthogonalEdgeStyle;rounded=0;orthogonalLoop=1;jettySize=auto;html=1;exitX=0;exitY=0.25;exitDx=0;exitDy=0;entryX=0.5;entryY=1;entryDx=0;entryDy=0;" edge="1" parent="1" source="7Yh6D1ucSm9buxZHoczs-1" target="7Yh6D1ucSm9buxZHoczs-159">
          <mxGeometry relative="1" as="geometry" />
        </mxCell>
        <mxCell id="7Yh6D1ucSm9buxZHoczs-1" value="FPGA" style="rounded=0;whiteSpace=wrap;html=1;fillColor=#f8cecc;strokeColor=#b85450;" vertex="1" parent="1">
          <mxGeometry x="120" y="220" width="120" height="60" as="geometry" />
        </mxCell>
        <mxCell id="7Yh6D1ucSm9buxZHoczs-146" style="edgeStyle=orthogonalEdgeStyle;rounded=0;orthogonalLoop=1;jettySize=auto;html=1;entryX=0.75;entryY=1;entryDx=0;entryDy=0;" edge="1" parent="1" source="7Yh6D1ucSm9buxZHoczs-29" target="7Yh6D1ucSm9buxZHoczs-1">
          <mxGeometry relative="1" as="geometry" />
        </mxCell>
        <mxCell id="7Yh6D1ucSm9buxZHoczs-29" value="FPGA LEDs" style="rounded=1;whiteSpace=wrap;html=1;fillColor=#d5e8d4;strokeColor=#82b366;" vertex="1" parent="1">
          <mxGeometry x="300" y="330" width="120" height="60" as="geometry" />
        </mxCell>
        <mxCell id="7Yh6D1ucSm9buxZHoczs-75" value="" style="endArrow=none;html=1;rounded=0;targetPerimeterSpacing=63;endSize=17;" edge="1" parent="1">
          <mxGeometry width="50" height="50" relative="1" as="geometry">
            <mxPoint x="550" as="sourcePoint" />
            <mxPoint x="945" as="targetPoint" />
          </mxGeometry>
        </mxCell>
        <mxCell id="7Yh6D1ucSm9buxZHoczs-76" value="" style="endArrow=none;html=1;rounded=0;" edge="1" parent="1">
          <mxGeometry width="50" height="50" relative="1" as="geometry">
            <mxPoint x="550" y="30" as="sourcePoint" />
            <mxPoint x="550" as="targetPoint" />
          </mxGeometry>
        </mxCell>
        <mxCell id="7Yh6D1ucSm9buxZHoczs-77" value="" style="endArrow=classic;html=1;rounded=0;" edge="1" parent="1">
          <mxGeometry width="50" height="50" relative="1" as="geometry">
            <mxPoint x="944.7" as="sourcePoint" />
            <mxPoint x="944.7" y="30" as="targetPoint" />
          </mxGeometry>
        </mxCell>
        <mxCell id="7Yh6D1ucSm9buxZHoczs-79" value="" style="endArrow=classic;html=1;rounded=0;" edge="1" parent="1">
          <mxGeometry width="50" height="50" relative="1" as="geometry">
            <mxPoint x="884.75" as="sourcePoint" />
            <mxPoint x="884.75" y="30" as="targetPoint" />
          </mxGeometry>
        </mxCell>
        <mxCell id="7Yh6D1ucSm9buxZHoczs-80" value="" style="endArrow=classic;html=1;rounded=0;" edge="1" parent="1">
          <mxGeometry width="50" height="50" relative="1" as="geometry">
            <mxPoint x="824.75" as="sourcePoint" />
            <mxPoint x="824.75" y="30" as="targetPoint" />
          </mxGeometry>
        </mxCell>
        <mxCell id="7Yh6D1ucSm9buxZHoczs-81" value="" style="endArrow=classic;html=1;rounded=0;" edge="1" parent="1">
          <mxGeometry width="50" height="50" relative="1" as="geometry">
            <mxPoint x="764.75" as="sourcePoint" />
            <mxPoint x="764.75" y="30" as="targetPoint" />
          </mxGeometry>
        </mxCell>
        <mxCell id="7Yh6D1ucSm9buxZHoczs-82" value="" style="endArrow=classic;html=1;rounded=0;" edge="1" parent="1">
          <mxGeometry width="50" height="50" relative="1" as="geometry">
            <mxPoint x="704.75" as="sourcePoint" />
            <mxPoint x="704.75" y="30" as="targetPoint" />
          </mxGeometry>
        </mxCell>
        <mxCell id="7Yh6D1ucSm9buxZHoczs-83" value="" style="endArrow=classic;html=1;rounded=0;" edge="1" parent="1">
          <mxGeometry width="50" height="50" relative="1" as="geometry">
            <mxPoint x="644.75" as="sourcePoint" />
            <mxPoint x="644.75" y="30" as="targetPoint" />
          </mxGeometry>
        </mxCell>
        <mxCell id="7Yh6D1ucSm9buxZHoczs-84" value="Display control signals" style="text;html=1;align=center;verticalAlign=middle;whiteSpace=wrap;rounded=0;" vertex="1" parent="1">
          <mxGeometry x="685" y="-30" width="165" height="30" as="geometry" />
        </mxCell>
        <mxCell id="7Yh6D1ucSm9buxZHoczs-85" value="GPIO Header" style="rounded=1;whiteSpace=wrap;html=1;fillColor=#e1d5e7;strokeColor=#9673a6;" vertex="1" parent="1">
          <mxGeometry x="850" y="170" width="120" height="60" as="geometry" />
        </mxCell>
        <mxCell id="7Yh6D1ucSm9buxZHoczs-88" value="MCU LEDs" style="rounded=1;whiteSpace=wrap;html=1;fillColor=#d5e8d4;strokeColor=#82b366;" vertex="1" parent="1">
          <mxGeometry x="450" y="330" width="120" height="60" as="geometry" />
        </mxCell>
        <mxCell id="7Yh6D1ucSm9buxZHoczs-91" value="MCU Buttons" style="rounded=1;whiteSpace=wrap;html=1;fillColor=#d5e8d4;strokeColor=#82b366;" vertex="1" parent="1">
          <mxGeometry x="850" y="270" width="120" height="60" as="geometry" />
        </mxCell>
        <mxCell id="7Yh6D1ucSm9buxZHoczs-96" value="Controller Header" style="rounded=1;whiteSpace=wrap;html=1;fillColor=#e1d5e7;strokeColor=#9673a6;" vertex="1" parent="1">
          <mxGeometry x="450" y="420" width="350" height="60" as="geometry" />
        </mxCell>
        <mxCell id="7Yh6D1ucSm9buxZHoczs-106" style="edgeStyle=orthogonalEdgeStyle;rounded=0;orthogonalLoop=1;jettySize=auto;html=1;entryX=0.767;entryY=1.023;entryDx=0;entryDy=0;entryPerimeter=0;" edge="1" parent="1" target="7Yh6D1ucSm9buxZHoczs-96">
          <mxGeometry relative="1" as="geometry">
            <mxPoint x="720" y="490" as="targetPoint" />
            <mxPoint x="750" y="570" as="sourcePoint" />
            <Array as="points">
              <mxPoint x="718" y="570" />
            </Array>
          </mxGeometry>
        </mxCell>
        <mxCell id="7Yh6D1ucSm9buxZHoczs-107" value="&lt;div&gt;Y&lt;/div&gt;" style="edgeLabel;html=1;align=center;verticalAlign=middle;resizable=0;points=[];" vertex="1" connectable="0" parent="7Yh6D1ucSm9buxZHoczs-106">
          <mxGeometry x="0.3221" y="1" relative="1" as="geometry">
            <mxPoint as="offset" />
          </mxGeometry>
        </mxCell>
        <mxCell id="7Yh6D1ucSm9buxZHoczs-108" style="edgeStyle=orthogonalEdgeStyle;rounded=0;orthogonalLoop=1;jettySize=auto;html=1;entryX=0.5;entryY=1;entryDx=0;entryDy=0;" edge="1" parent="1" target="7Yh6D1ucSm9buxZHoczs-96">
          <mxGeometry relative="1" as="geometry">
            <mxPoint x="625" y="540" as="sourcePoint" />
          </mxGeometry>
        </mxCell>
        <mxCell id="7Yh6D1ucSm9buxZHoczs-109" value="Z" style="edgeLabel;html=1;align=center;verticalAlign=middle;resizable=0;points=[];" vertex="1" connectable="0" parent="7Yh6D1ucSm9buxZHoczs-108">
          <mxGeometry x="-0.1321" y="-2" relative="1" as="geometry">
            <mxPoint x="-2" as="offset" />
          </mxGeometry>
        </mxCell>
        <mxCell id="7Yh6D1ucSm9buxZHoczs-103" style="edgeStyle=orthogonalEdgeStyle;rounded=0;orthogonalLoop=1;jettySize=auto;html=1;entryX=0.928;entryY=1.06;entryDx=0;entryDy=0;entryPerimeter=0;" edge="1" parent="1" target="7Yh6D1ucSm9buxZHoczs-96">
          <mxGeometry relative="1" as="geometry">
            <mxPoint x="775" y="540" as="sourcePoint" />
          </mxGeometry>
        </mxCell>
        <mxCell id="7Yh6D1ucSm9buxZHoczs-104" value="X" style="edgeLabel;html=1;align=center;verticalAlign=middle;resizable=0;points=[];" vertex="1" connectable="0" parent="7Yh6D1ucSm9buxZHoczs-103">
          <mxGeometry x="0.2515" y="-1" relative="1" as="geometry">
            <mxPoint x="-1" y="14" as="offset" />
          </mxGeometry>
        </mxCell>
        <mxCell id="7Yh6D1ucSm9buxZHoczs-110" style="edgeStyle=orthogonalEdgeStyle;rounded=0;orthogonalLoop=1;jettySize=auto;html=1;entryX=0.071;entryY=1.072;entryDx=0;entryDy=0;entryPerimeter=0;" edge="1" parent="1" target="7Yh6D1ucSm9buxZHoczs-96">
          <mxGeometry relative="1" as="geometry">
            <mxPoint x="475" y="540" as="sourcePoint" />
          </mxGeometry>
        </mxCell>
        <mxCell id="7Yh6D1ucSm9buxZHoczs-111" value="Button signal" style="edgeLabel;html=1;align=center;verticalAlign=middle;resizable=0;points=[];" vertex="1" connectable="0" parent="7Yh6D1ucSm9buxZHoczs-110">
          <mxGeometry x="-0.0926" y="-2" relative="1" as="geometry">
            <mxPoint y="-2" as="offset" />
          </mxGeometry>
        </mxCell>
        <mxCell id="7Yh6D1ucSm9buxZHoczs-112" value="&lt;div&gt;Button&lt;/div&gt;" style="rounded=1;whiteSpace=wrap;html=1;fillColor=#fff2cc;strokeColor=#d6b656;" vertex="1" parent="1">
          <mxGeometry x="450" y="540" width="50" height="60" as="geometry" />
        </mxCell>
        <mxCell id="7Yh6D1ucSm9buxZHoczs-113" value="Slider" style="rounded=1;whiteSpace=wrap;html=1;fillColor=#fff2cc;strokeColor=#d6b656;" vertex="1" parent="1">
          <mxGeometry x="600" y="540" width="50" height="60" as="geometry" />
        </mxCell>
        <mxCell id="7Yh6D1ucSm9buxZHoczs-114" value="&lt;div&gt;Joystick&lt;/div&gt;" style="rounded=1;whiteSpace=wrap;html=1;fillColor=#fff2cc;strokeColor=#d6b656;" vertex="1" parent="1">
          <mxGeometry x="750" y="540" width="50" height="60" as="geometry" />
        </mxCell>
        <mxCell id="7Yh6D1ucSm9buxZHoczs-115" value="&lt;div&gt;16 segment display&lt;/div&gt;" style="rounded=1;whiteSpace=wrap;html=1;fillColor=#fff2cc;strokeColor=#d6b656;" vertex="1" parent="1">
          <mxGeometry x="620" y="30" width="50" height="60" as="geometry" />
        </mxCell>
        <mxCell id="7Yh6D1ucSm9buxZHoczs-116" value="&lt;div&gt;16 segment display&lt;/div&gt;" style="rounded=1;whiteSpace=wrap;html=1;fillColor=#fff2cc;strokeColor=#d6b656;" vertex="1" parent="1">
          <mxGeometry x="680" y="30" width="50" height="60" as="geometry" />
        </mxCell>
        <mxCell id="7Yh6D1ucSm9buxZHoczs-117" value="&lt;div&gt;16 segment display&lt;/div&gt;" style="rounded=1;whiteSpace=wrap;html=1;fillColor=#fff2cc;strokeColor=#d6b656;" vertex="1" parent="1">
          <mxGeometry x="740" y="30" width="50" height="60" as="geometry" />
        </mxCell>
        <mxCell id="7Yh6D1ucSm9buxZHoczs-118" value="&lt;div&gt;16 segment display&lt;/div&gt;" style="rounded=1;whiteSpace=wrap;html=1;fillColor=#fff2cc;strokeColor=#d6b656;" vertex="1" parent="1">
          <mxGeometry x="800" y="30" width="50" height="60" as="geometry" />
        </mxCell>
        <mxCell id="7Yh6D1ucSm9buxZHoczs-119" value="&lt;div&gt;16 segment display&lt;/div&gt;" style="rounded=1;whiteSpace=wrap;html=1;fillColor=#fff2cc;strokeColor=#d6b656;" vertex="1" parent="1">
          <mxGeometry x="860" y="30" width="50" height="60" as="geometry" />
        </mxCell>
        <mxCell id="7Yh6D1ucSm9buxZHoczs-120" value="&lt;div&gt;16 segment display&lt;/div&gt;" style="rounded=1;whiteSpace=wrap;html=1;fillColor=#fff2cc;strokeColor=#d6b656;" vertex="1" parent="1">
          <mxGeometry x="920" y="30" width="50" height="60" as="geometry" />
        </mxCell>
        <mxCell id="7Yh6D1ucSm9buxZHoczs-129" value="Flash Memory" style="rounded=1;whiteSpace=wrap;html=1;fillColor=#dae8fc;strokeColor=#6c8ebf;" vertex="1" parent="1">
          <mxGeometry x="270" y="640" width="120" height="60" as="geometry" />
        </mxCell>
        <mxCell id="7Yh6D1ucSm9buxZHoczs-151" value="GPIO Header" style="rounded=1;whiteSpace=wrap;html=1;fillColor=#e1d5e7;strokeColor=#9673a6;" vertex="1" parent="1">
          <mxGeometry x="-80" y="490" width="120" height="60" as="geometry" />
        </mxCell>
        <mxCell id="7Yh6D1ucSm9buxZHoczs-152" value="PSRAM" style="rounded=1;whiteSpace=wrap;html=1;fillColor=#dae8fc;strokeColor=#6c8ebf;" vertex="1" parent="1">
          <mxGeometry x="290" y="20" width="120" height="60" as="geometry" />
        </mxCell>
        <mxCell id="7Yh6D1ucSm9buxZHoczs-157" value="12 bit colour signal" style="edgeLabel;html=1;align=center;verticalAlign=middle;resizable=0;points=[];rotation=0;" vertex="1" connectable="0" parent="1">
          <mxGeometry x="0.0034301773275799974" y="179.53326973120852" as="geometry" />
        </mxCell>
        <mxCell id="7Yh6D1ucSm9buxZHoczs-159" value="VGA DAC" style="rounded=1;whiteSpace=wrap;html=1;fillColor=#d5e8d4;strokeColor=#82b366;rotation=0;" vertex="1" parent="1">
          <mxGeometry x="-75" y="70" width="120" height="60" as="geometry" />
        </mxCell>
        <mxCell id="7Yh6D1ucSm9buxZHoczs-160" value="VGA Output" style="rounded=1;whiteSpace=wrap;html=1;fillColor=#e1d5e7;strokeColor=#9673a6;rotation=0;" vertex="1" parent="1">
          <mxGeometry x="-140" y="-50" width="195" height="60" as="geometry" />
        </mxCell>
        <mxCell id="7Yh6D1ucSm9buxZHoczs-161" style="edgeStyle=orthogonalEdgeStyle;rounded=0;orthogonalLoop=1;jettySize=auto;html=1;exitX=0.5;exitY=0;exitDx=0;exitDy=0;entryX=0.641;entryY=1.028;entryDx=0;entryDy=0;entryPerimeter=0;" edge="1" parent="1" source="7Yh6D1ucSm9buxZHoczs-159" target="7Yh6D1ucSm9buxZHoczs-160">
          <mxGeometry relative="1" as="geometry">
            <mxPoint x="-25" y="20" as="targetPoint" />
            <mxPoint x="-5" y="60" as="sourcePoint" />
          </mxGeometry>
        </mxCell>
        <mxCell id="7Yh6D1ucSm9buxZHoczs-162" value="Analog RGB signal" style="edgeLabel;html=1;align=center;verticalAlign=middle;resizable=0;points=[];rotation=0;" vertex="1" connectable="0" parent="7Yh6D1ucSm9buxZHoczs-161">
          <mxGeometry x="-0.0735" y="2" relative="1" as="geometry">
            <mxPoint x="2" y="-2" as="offset" />
          </mxGeometry>
        </mxCell>
        <mxCell id="7Yh6D1ucSm9buxZHoczs-164" style="edgeStyle=orthogonalEdgeStyle;rounded=0;orthogonalLoop=1;jettySize=auto;html=1;exitX=0;exitY=0.75;exitDx=0;exitDy=0;entryX=0.105;entryY=1.007;entryDx=0;entryDy=0;entryPerimeter=0;" edge="1" parent="1" source="7Yh6D1ucSm9buxZHoczs-1" target="7Yh6D1ucSm9buxZHoczs-160">
          <mxGeometry relative="1" as="geometry" />
        </mxCell>
        <mxCell id="7Yh6D1ucSm9buxZHoczs-165" value="VGA clock signals" style="edgeLabel;html=1;align=center;verticalAlign=middle;resizable=0;points=[];" vertex="1" connectable="0" parent="7Yh6D1ucSm9buxZHoczs-164">
          <mxGeometry x="0.4032" relative="1" as="geometry">
            <mxPoint as="offset" />
          </mxGeometry>
        </mxCell>
      </root>
    </mxGraphModel>
  </diagram>
</mxfile>
